<?xml version="1.0" standalone="no"?>
<!DOCTYPE svg PUBLIC "-//W3C//DTD SVG 1.1//EN" "http://www.w3.org/Graphics/SVG/1.1/DTD/svg11.dtd" >
<svg xmlns="http://www.w3.org/2000/svg" xmlns:xlink="http://www.w3.org/1999/xlink" version="1.1">
<metadata>
Created by FontForge 20201107 at Wed Apr  8 07:50:42 2015
 By 
Copyright danengneng 2015
</metadata>
<defs>
<font id="Crumbled-Pixels" horiz-adv-x="458" >
  <font-face 
    font-family="Crumbled Pixels"
    font-weight="400"
    font-stretch="normal"
    units-per-em="1024"
    panose-1="0 0 4 0 0 0 0 0 0 0"
    ascent="819"
    descent="-205"
    x-height="288"
    cap-height="512"
    bbox="-246 -288 512 512"
    underline-thickness="51"
    underline-position="77"
    unicode-range="U+0020-201D"
  />
<missing-glyph horiz-adv-x="289" 
d="M256 72v82h-82v-82h82zM337 167v82h-163v-82h163zM256 262v82h-82v-82h82zM337 357v81h-81q-34 0 -58 -23q-24 -24 -24 -58h163zM0 0v512h512v-512h-512z" />
    <glyph glyph-name=".notdef" horiz-adv-x="289" 
d="M256 72v82h-82v-82h82zM337 167v82h-163v-82h163zM256 262v82h-82v-82h82zM337 357v81h-81q-34 0 -58 -23q-24 -24 -24 -58h163zM0 0v512h512v-512h-512z" />
    <glyph glyph-name="glyph1" horiz-adv-x="42" 
 />
    <glyph glyph-name="glyph2" horiz-adv-x="192" 
 />
    <glyph glyph-name="space" unicode=" " horiz-adv-x="192" 
 />
    <glyph glyph-name="quotesingle" unicode="'" horiz-adv-x="138" 
d="M0 384v32h32v-32h-32zM32 416v32h-32v64h64v-96h-32z" />
    <glyph glyph-name="comma" unicode="," horiz-adv-x="138" 
d="M0 -64v32h32v-32h-32zM32 -32v32h-32v64h64v-96h-32z" />
    <glyph glyph-name="period" unicode="." horiz-adv-x="138" 
d="M0 0v64h64v-64h-64z" />
    <glyph glyph-name="zero" unicode="0" 
d="M172 -179v7h7v-7h-7zM268 -179v7h7v-7h-7zM172 -147v7h7v-7h-7zM201 -118v13h13v-13h-13zM105 -86v13h13v-13h-13zM169 -54v13h13v-13h-13zM233 -54v13h13v-13h-13zM108 -19v7h7v-7h-7zM268 -19v7h7v-7h-7zM134 -25v19h19v-19h-19zM201 9v13h13v-13h-13zM262 6v19h19v-19
h-19zM38 70v19h19v-19h-19zM361 105v13h13v-13h-13zM329 169v13h13v-13h-13zM38 166v19h19v-19h-19zM329 201v13h13v-13h-13zM6 262v19h19v-19h-19zM256 64v32h32v32h32v32h32v64h-32v160h-32v32h-32v32h-128v-32h-32v-32h-32v-192h-32v-32h32v-32h32v-32h32v-32h128zM96 0
v32h-32v64h-64v160h32v32h-32v128h32v32h32v32h32v32h192v-32h32v-32h32v-32h32v-288h-32v-64h-32v-32h-64v-32h-32v32h-32v-32h-96z" />
    <glyph glyph-name="one" unicode="1" horiz-adv-x="266" 
d="M140 -179v7h7v-7h-7zM140 -147v7h7v-7h-7zM169 -86v13h13v-13h-13zM169 -54v13h13v-13h-13zM134 -25v19h19v-19h-19zM169 41v13h13v-13h-13zM137 105v13h13v-13h-13zM134 134v19h19v-19h-19zM166 262v19h19v-19h-19zM128 0v96h32v64h-32v256h-32v-32h-96v32h32v32h32v32
h32v32h96v-224h-32v-32h32v-192h-32v-32h32v-32h-64z" />
    <glyph glyph-name="two" unicode="2" 
d="M140 -179v7h7v-7h-7zM236 -179v7h7v-7h-7zM140 -147v7h7v-7h-7zM76 -115v7h7v-7h-7zM201 -118v13h13v-13h-13zM140 -83v7h7v-7h-7zM230 -89v19h19v-19h-19zM297 -54v13h13v-13h-13zM102 -57v19h19v-19h-19zM38 -25v19h19v-19h-19zM262 -25v19h19v-19h-19zM73 9v13h13v-13
h-13zM105 9v13h13v-13h-13zM358 6v19h19v-19h-19zM265 41v13h13v-13h-13zM297 41v13h13v-13h-13zM6 38v19h19v-19h-19zM102 70v19h19v-19h-19zM105 137v13h13v-13h-13zM169 169v13h13v-13h-13zM0 0v32h32v64h32v32h64v64h32v-32h32v-32h-32v-32h-64v-32h160v-32h64v32h64
v-32h-32v-32h-224v32h-64v-32h-64zM192 160v32h-32v32h32v32h32v32h32v32h32v32h32v64h-32v32h-192v-32h-32v-64h-64v96h32v32h64v32h192v-32h64v-32h32v-128h-32v-32h-32v-32h-32v-32h-32v-32h-32v-32h-32z" />
    <glyph glyph-name="three" unicode="3" horiz-adv-x="394" 
d="M204 -179v7h7v-7h-7zM137 -182v13h13v-13h-13zM108 -147v7h7v-7h-7zM204 -147v7h7v-7h-7zM73 -86v13h13v-13h-13zM169 -86v13h13v-13h-13zM38 -57v19h19v-19h-19zM166 -57v19h19v-19h-19zM230 -25v19h19v-19h-19zM137 41v13h13v-13h-13zM169 41v13h13v-13h-13zM41 73v13
h13v-13h-13zM265 137v13h13v-13h-13zM265 169v13h13v-13h-13zM105 265v13h13v-13h-13zM230 262v19h19v-19h-19zM32 0v32h-32v64h32v-32h96v-32h64v64h32v32h64v64h-64v32h-32v32h-64v32h-32v-32h-32v64h128v32h32v64h-32v32h-128v-32h-64v64h32v32h192v-32h32v-32h32v-32h32
v-64h-32v-32h-32v-32h-32v-32h64v-32h32v-128h-32v-32h-32v-32h-32v-32h-192z" />
    <glyph glyph-name="four" unicode="4" 
d="M268 -179v7h7v-7h-7zM300 -115v7h7v-7h-7zM300 -83v7h7v-7h-7zM297 -54v13h13v-13h-13zM262 -25v19h19v-19h-19zM294 38v19h19v-19h-19zM265 105v13h13v-13h-13zM262 134v19h19v-19h-19zM73 201v13h13v-13h-13zM233 201v13h13v-13h-13zM297 265v13h13v-13h-13zM256 256
v160h-32v-32h-32v-32h-32v-32h-32v-32h-32v-32h160zM256 0v96h32v64h-32v64h-32v-32h-128v32h-32v-32h-64v96h32v32h32v32h32v32h32v32h32v32h32v32h64v32h64v-224h-32v-32h96v-64h-64v-128h-32v-32h32v-32h-64z" />
    <glyph glyph-name="five" unicode="5" horiz-adv-x="426" 
d="M172 -179v7h7v-7h-7zM108 -147v7h7v-7h-7zM172 -147v7h7v-7h-7zM76 -83v7h7v-7h-7zM140 -83v7h7v-7h-7zM172 -83v7h7v-7h-7zM204 -51v7h7v-7h-7zM105 -54v13h13v-13h-13zM201 -22v13h13v-13h-13zM70 -25v19h19v-19h-19zM137 9v13h13v-13h-13zM233 9v13h13v-13h-13zM73 41
v13h13v-13h-13zM297 169v13h13v-13h-13zM137 297v13h13v-13h-13zM233 297v13h13v-13h-13zM32 0v64h32v-32h32v32h128v32h32v32h32v32h32v32h-64v32h-32v32h-192v256h320v-64h-256v-128h32v-32h32v32h64v-32h64v-32h32v-32h32v-128h-32v-32h-32v-32h-64v-32h-64v32h-32v-32
h-96z" />
    <glyph glyph-name="six" unicode="6" horiz-adv-x="426" 
d="M140 -179v7h7v-7h-7zM236 -179v7h7v-7h-7zM236 -147v7h7v-7h-7zM166 -153v19h19v-19h-19zM140 -115v7h7v-7h-7zM76 -83v7h7v-7h-7zM198 -89v19h19v-19h-19zM105 -54v13h13v-13h-13zM134 -25v19h19v-19h-19zM230 -25v19h19v-19h-19zM102 6v19h19v-19h-19zM198 6v19h19v-19
h-19zM6 102v19h19v-19h-19zM326 134v19h19v-19h-19zM38 166v19h19v-19h-19zM224 64v32h32v32h32v64h-32v32h-32v32h-96v-32h-32v-32h-64v-32h32v-32h32v-32h32v-32h96zM265 265v13h13v-13h-13zM128 0v32h-64v32h-32v64h-32v288h32v32h32v32h32v32h192v-32h32v-32h32v-64h-64
v32h-32v32h-128v-32h-32v-32h-32v-96h32v32h160v-64h64v-32h32v-64h-32v-32h32v-32h-32v-32h-32v-32h-32v-32h-32v32h-32v-32h-64z" />
    <glyph glyph-name="seven" unicode="7" horiz-adv-x="426" 
d="M204 -179v7h7v-7h-7zM204 -115v7h7v-7h-7zM204 -83v7h7v-7h-7zM169 -54v13h13v-13h-13zM198 -25v19h19v-19h-19zM201 41v13h13v-13h-13zM169 105v13h13v-13h-13zM169 137v13h13v-13h-13zM166 230v19h19v-19h-19zM230 294v19h19v-19h-19zM160 0v96h32v64h-32v64h32v64h64
v64h32v96h-224v-32h-64v96h352v-192h-32v-32h-32v-32h-32v-32h-32v-160h-32v-32h32v-32h-64z" />
    <glyph glyph-name="eight" unicode="8" horiz-adv-x="426" 
d="M172 -179v7h7v-7h-7zM236 -179v7h7v-7h-7zM204 -147v7h7v-7h-7zM137 -118v13h13v-13h-13zM198 -89v19h19v-19h-19zM102 -57v19h19v-19h-19zM137 -22v13h13v-13h-13zM230 -25v19h19v-19h-19zM134 38v19h19v-19h-19zM230 70v19h19v-19h-19zM38 134v19h19v-19h-19zM294 166
v19h19v-19h-19zM160 32v32h96v64h32v32h32v32h-64v32h-32v32h-96v-32h-32v-32h-32v-32h-32v-32h64v-32h32v-64h32zM224 320v32h32v64h-32v32h-96v-32h-32v-64h32v-32h96zM96 0v32h-32v32h-32v32h-32v128h32v32h32v64h-32v32h-32v64h32v32h32v32h32v32h160v-32h32v-32h32v-32
h32v-64h-32v-32h-32v-64h32v-32h32v-128h-32v-32h-32v-32h-32v-32h-160z" />
    <glyph glyph-name="nine" unicode="9" horiz-adv-x="426" 
d="M108 -179v7h7v-7h-7zM108 -147v7h7v-7h-7zM73 -118v13h13v-13h-13zM105 -86v13h13v-13h-13zM70 -57v19h19v-19h-19zM108 -19v7h7v-7h-7zM105 9v13h13v-13h-13zM134 38v19h19v-19h-19zM64 0v64h32v32h96v-32h-64v-32h-32v-32h-32zM169 105v13h13v-13h-13zM134 102v19h19
v-19h-19zM201 169v13h13v-13h-13zM230 198v19h19v-19h-19zM326 230v19h19v-19h-19zM134 262v19h19v-19h-19zM160 256v32h96v32h32v96h-32v32h-128v-32h-32v-96h32v-64h32zM192 96v32h-32v32h64v32h32v32h-160v32h-32v32h-32v160h32v32h32v32h192v-32h32v-32h32v-192h-32v-64
h-32v-32h-32v-32h-32v-32h-32z" />
    <glyph glyph-name="A" unicode="A" 
d="M44 -179v7h7v-7h-7zM364 -179v7h7v-7h-7zM12 -147v7h7v-7h-7zM332 -147v7h7v-7h-7zM41 -118v13h13v-13h-13zM329 -118v13h13v-13h-13zM12 -83v7h7v-7h-7zM364 -83v7h7v-7h-7zM44 -51v7h7v-7h-7zM329 -54v13h13v-13h-13zM9 -22v13h13v-13h-13zM358 -25v19h19v-19h-19z
M41 9v13h13v-13h-13zM0 0v32h32v-32h-32zM9 41v13h13v-13h-13zM361 41v13h13v-13h-13zM41 105v13h13v-13h-13zM329 105v13h13v-13h-13zM38 166v19h19v-19h-19zM358 166v19h19v-19h-19zM32 32v32h-32v128h32v-32h32v-32h-32v-32h32v-64h-32zM6 198v19h19v-19h-19zM358 198v19
h19v-19h-19zM358 294v19h19v-19h-19zM320 352v64h-32v32h-192v-32h-32v-64h256zM320 0v96h32v32h-32v160h-256v-96h-32v32h-32v224h32v32h32v32h256v-32h32v-32h32v-128h-32v-32h32v-64h-32v-64h32v-96h-32v-32h32v-32h-64z" />
    <glyph glyph-name="B" unicode="B" 
d="M204 -179v7h7v-7h-7zM108 -147v7h7v-7h-7zM73 -118v13h13v-13h-13zM233 -118v13h13v-13h-13zM41 -86v13h13v-13h-13zM134 -89v19h19v-19h-19zM297 -54v13h13v-13h-13zM70 -57v19h19v-19h-19zM230 -57v19h19v-19h-19zM6 -25v19h19v-19h-19zM134 -25v19h19v-19h-19z
M198 -25v19h19v-19h-19zM294 -25v19h19v-19h-19zM73 9v13h13v-13h-13zM169 9v13h13v-13h-13zM41 41v13h13v-13h-13zM329 41v13h13v-13h-13zM198 38v19h19v-19h-19zM96 0v32h-32v32h128v-32h-32v-32h-64zM38 102v19h19v-19h-19zM358 102v19h19v-19h-19zM358 166v19h19v-19
h-19zM6 198v19h19v-19h-19zM320 288v128h-32v32h-224v-160h256zM0 0v192h32v32h-32v288h320v-32h32v-32h32v-160h-32v-64h32v-32h-32v-32h32v-32h-32v-32h32v-32h-64v-64h-128v32h32v32h64v32h32v128h-256v-96h-32v-32h32v-32h-32v-32h32v-32h-64z" />
    <glyph glyph-name="C" unicode="C" 
d="M236 -179v7h7v-7h-7zM172 -147v7h7v-7h-7zM265 -118v13h13v-13h-13zM172 -83v7h7v-7h-7zM105 -86v13h13v-13h-13zM233 -86v13h13v-13h-13zM140 -51v7h7v-7h-7zM361 -54v13h13v-13h-13zM262 -57v19h19v-19h-19zM297 -22v13h13v-13h-13zM102 -25v19h19v-19h-19zM198 -25v19
h19v-19h-19zM41 9v13h13v-13h-13zM137 9v13h13v-13h-13zM233 9v13h13v-13h-13zM326 6v19h19v-19h-19zM297 41v13h13v-13h-13zM358 38v19h19v-19h-19zM73 73v13h13v-13h-13zM96 0v32h-32v32h32v32h32v-32h160v-32h32v-32h-64v32h-32v-32h-64v32h-32v-32h-32zM320 32v64h64
v-32h-32v-32h-32zM38 166v19h19v-19h-19zM6 230v19h19v-19h-19zM32 64v64h-32v96h32v32h-32v160h32v32h32v32h32v32h256v-32h32v-64h-64v32h-192v-32h-32v-32h-32v-192h-32v-32h32v-32h32v-32h-32v-32h-32z" />
    <glyph glyph-name="D" unicode="D" 
d="M105 -182v13h13v-13h-13zM265 -150v13h13v-13h-13zM102 -121v19h19v-19h-19zM198 -121v19h19v-19h-19zM41 -86v13h13v-13h-13zM70 -57v19h19v-19h-19zM166 -57v19h19v-19h-19zM262 -57v19h19v-19h-19zM6 -25v19h19v-19h-19zM70 -25v19h19v-19h-19zM73 9v13h13v-13h-13z
M169 9v13h13v-13h-13zM233 9v13h13v-13h-13zM329 9v13h13v-13h-13zM6 6v19h19v-19h-19zM9 73v13h13v-13h-13zM297 73v13h13v-13h-13zM32 0v32h-32v32h32v32h32v-32h192v32h32v-32h32v-32h-32v-32h-32v32h-32v-32h-32v32h-32v-32h-64v32h-32v-32h-32zM41 105v13h13v-13h-13z
M361 137v13h13v-13h-13zM38 166v19h19v-19h-19zM0 96v96h32v-32h32v-32h-32v-32h-32zM6 198v19h19v-19h-19zM326 198v19h19v-19h-19zM320 64v32h-32v32h32v64h32v32h32v-64h-32v-32h32v-32h-32v-32h-32zM358 230v19h19v-19h-19zM32 192v32h-32v288h288v-32h32v-32h32v-32h32
v-160h-32v-32h-32v160h-32v32h-32v32h-192v-256h-32z" />
    <glyph glyph-name="E" unicode="E" 
d="M108 -179v7h7v-7h-7zM236 -179v7h7v-7h-7zM105 -150v13h13v-13h-13zM265 -118v13h13v-13h-13zM137 -86v13h13v-13h-13zM169 -86v13h13v-13h-13zM233 -86v13h13v-13h-13zM105 -54v13h13v-13h-13zM38 -57v19h19v-19h-19zM294 -57v19h19v-19h-19zM265 -22v13h13v-13h-13z
M361 -22v13h13v-13h-13zM134 -25v19h19v-19h-19zM64 -32v32h32v-32h-32zM9 9v13h13v-13h-13zM73 9v13h13v-13h-13zM361 9v13h13v-13h-13zM294 6v19h19v-19h-19zM233 41v13h13v-13h-13zM9 105v13h13v-13h-13zM6 134v19h19v-19h-19zM38 198v19h19v-19h-19zM198 262v19h19v-19
h-19zM6 294v19h19v-19h-19zM32 0v32h-32v64h32v64h-32v128h32v32h-32v192h384v-64h-320v-128h224v-64h-64v32h-32v-32h-128v-32h-32v-32h32v-128h160v-32h32v32h128v-32h-32v-32h-32v32h-32v-32h-192v32h-32v-32h-32z" />
    <glyph glyph-name="F" unicode="F" 
d="M12 -179v7h7v-7h-7zM12 -147v7h7v-7h-7zM41 -118v13h13v-13h-13zM9 -86v13h13v-13h-13zM38 -57v19h19v-19h-19zM6 -25v19h19v-19h-19zM41 41v13h13v-13h-13zM0 0v64h32v-32h32v-32h-64zM9 73v13h13v-13h-13zM38 134v19h19v-19h-19zM6 198v19h19v-19h-19zM6 230v19h19v-19
h-19zM32 64v32h-32v96h32v64h-32v256h384v-64h-320v-64h288v-64h-288v-160h-32v-32h32v-64h-32z" />
    <glyph glyph-name="G" unicode="G" horiz-adv-x="522" 
d="M172 -179v7h7v-7h-7zM236 -147v7h7v-7h-7zM265 -118v13h13v-13h-13zM134 -121v19h19v-19h-19zM73 -86v13h13v-13h-13zM233 -86v13h13v-13h-13zM169 -54v13h13v-13h-13zM297 -22v13h13v-13h-13zM70 -25v19h19v-19h-19zM169 9v13h13v-13h-13zM233 9v13h13v-13h-13zM294 6
v19h19v-19h-19zM70 70v19h19v-19h-19zM329 105v13h13v-13h-13zM73 137v13h13v-13h-13zM361 137v13h13v-13h-13zM9 201v13h13v-13h-13zM233 201v13h13v-13h-13zM425 201v13h13v-13h-13zM393 233v13h13v-13h-13zM416 224v32h32v-32h-32zM128 0v32h-32v64h-64v32h-32v64h32v32
h-32v160h32v32h32v32h32v32h32v32h192v-32h32v-32h32v-32h32v-32h32v-64h-64v32h-32v32h-32v32h-32v32h-128v-32h-32v-32h-32v-32h-32v-224h64v-32h32v-32h128v32h64v32h32v64h-128v32h-32v-32h-32v64h192v-32h32v-32h32v-64h-32v-32h-32v-32h-32v-32h-64v-32h-32v32h-32
v-32h-32v32h-32v-32h-32z" />
    <glyph glyph-name="H" unicode="H" 
d="M44 -179v7h7v-7h-7zM332 -179v7h7v-7h-7zM12 -147v7h7v-7h-7zM364 -115v7h7v-7h-7zM9 -118v13h13v-13h-13zM44 -83v7h7v-7h-7zM332 -83v7h7v-7h-7zM9 -86v13h13v-13h-13zM361 -54v13h13v-13h-13zM38 -57v19h19v-19h-19zM9 -22v13h13v-13h-13zM358 -25v19h19v-19h-19zM9 9
v13h13v-13h-13zM329 41v13h13v-13h-13zM41 73v13h13v-13h-13zM38 102v19h19v-19h-19zM358 102v19h19v-19h-19zM6 166v19h19v-19h-19zM326 166v19h19v-19h-19zM320 0v32h32v32h-32v96h32v32h32v-64h-32v-32h32v-96h-64zM361 201v13h13v-13h-13zM32 0v32h-32v128h32v32h-32
v320h64v-192h256v192h64v-288h-32v-32h-32v64h-256v-128h-32v-64h32v-64h-32z" />
    <glyph glyph-name="I" unicode="I" horiz-adv-x="138" 
d="M12 -179v7h7v-7h-7zM44 -147v7h7v-7h-7zM12 -115v7h7v-7h-7zM41 -86v13h13v-13h-13zM41 -54v13h13v-13h-13zM9 -22v13h13v-13h-13zM41 9v13h13v-13h-13zM41 41v13h13v-13h-13zM0 0v64h32v-64h-32zM6 70v19h19v-19h-19zM38 134v19h19v-19h-19zM32 64v32h-32v416h64v-352
h-32v-32h32v-64h-32z" />
    <glyph glyph-name="J" unicode="J" 
d="M108 -179v7h7v-7h-7zM172 -147v7h7v-7h-7zM12 -115v7h7v-7h-7zM172 -115v7h7v-7h-7zM108 -83v7h7v-7h-7zM233 -86v13h13v-13h-13zM41 -54v13h13v-13h-13zM169 -54v13h13v-13h-13zM73 -22v13h13v-13h-13zM41 9v13h13v-13h-13zM105 9v13h13v-13h-13zM0 0v32h32v-32h-32z
M9 41v13h13v-13h-13zM233 41v13h13v-13h-13zM64 0v32h-32v32h192v-32h32v-32h-128v32h-32v-32h-32zM41 73v13h13v-13h-13zM201 73v13h13v-13h-13zM0 64v32h32v-32h-32zM6 102v19h19v-19h-19zM32 96v32h-32v32h64v-64h-32zM230 166v19h19v-19h-19zM224 64v32h-32v96h32v-32
h32v-96h-32zM198 198v19h19v-19h-19zM230 262v19h19v-19h-19zM224 192v32h-32v224h-128v64h320v-64h-128v-160h-32v-32h32v-64h-32z" />
    <glyph glyph-name="K" unicode="K" 
d="M12 -179v7h7v-7h-7zM364 -179v7h7v-7h-7zM44 -147v7h7v-7h-7zM361 -150v13h13v-13h-13zM9 -118v13h13v-13h-13zM329 -118v13h13v-13h-13zM44 -83v7h7v-7h-7zM326 -89v19h19v-19h-19zM38 -57v19h19v-19h-19zM358 -57v19h19v-19h-19zM9 -22v13h13v-13h-13zM326 -25v19h19
v-19h-19zM41 9v13h13v-13h-13zM361 41v13h13v-13h-13zM38 38v19h19v-19h-19zM6 102v19h19v-19h-19zM326 102v19h19v-19h-19zM0 0v96h32v32h32v-64h-32v-64h-32zM41 137v13h13v-13h-13zM326 134v19h19v-19h-19zM320 0v96h32v64h32v-96h-32v-32h32v-32h-64zM361 169v13h13v-13
h-13zM38 198v19h19v-19h-19zM262 198v19h19v-19h-19zM358 358v19h19v-19h-19zM0 128v384h64v-224h192v32h32v32h32v160h64v-128h-32v-32h32v-32h-32v-32h-32v-64h32v-64h-64v64h-256v-32h32v-32h-32v-32h-32z" />
    <glyph glyph-name="L" unicode="L" 
d="M172 -179v7h7v-7h-7zM9 -182v13h13v-13h-13zM137 -150v13h13v-13h-13zM201 -118v13h13v-13h-13zM268 -83v7h7v-7h-7zM9 -86v13h13v-13h-13zM137 -86v13h13v-13h-13zM70 -89v19h19v-19h-19zM9 -54v13h13v-13h-13zM198 -57v19h19v-19h-19zM262 -57v19h19v-19h-19zM169 -22
v13h13v-13h-13zM38 -25v19h19v-19h-19zM102 -25v19h19v-19h-19zM326 -25v19h19v-19h-19zM137 9v13h13v-13h-13zM6 38v19h19v-19h-19zM294 38v19h19v-19h-19zM41 105v13h13v-13h-13zM6 166v19h19v-19h-19zM41 265v13h13v-13h-13zM0 0v32h32v32h-32v96h32v32h-32v320h64v-224
h-32v-32h32v-128h-32v-32h32v-32h224v-32h32v32h64v-64h-224v32h-32v-32h-128z" />
    <glyph glyph-name="M" unicode="M" 
d="M332 -179v7h7v-7h-7zM44 -147v7h7v-7h-7zM361 -150v13h13v-13h-13zM41 -118v13h13v-13h-13zM6 -121v19h19v-19h-19zM364 -83v7h7v-7h-7zM38 -89v19h19v-19h-19zM326 -89v19h19v-19h-19zM9 -54v13h13v-13h-13zM361 -54v13h13v-13h-13zM44 -19v7h7v-7h-7zM361 -22v13h13
v-13h-13zM9 41v13h13v-13h-13zM329 41v13h13v-13h-13zM0 0v32h32v32h32v-64h-64zM41 73v13h13v-13h-13zM361 105v13h13v-13h-13zM38 102v19h19v-19h-19zM329 169v13h13v-13h-13zM9 201v13h13v-13h-13zM166 262v19h19v-19h-19zM358 262v19h19v-19h-19zM320 0v32h32v32h-32v96
h32v32h-32v224h-32v-32h-32v-32h-32v-128h-64v32h32v32h-32v64h-32v32h-32v32h-32v-288h-32v-64h-32v128h32v32h-32v288h96v-32h32v-32h32v-32h64v32h32v32h32v32h96v-224h-32v-32h32v-128h-32v-32h32v-96h-64z" />
    <glyph glyph-name="N" unicode="N" 
d="M44 -179v7h7v-7h-7zM44 -147v7h7v-7h-7zM364 -147v7h7v-7h-7zM12 -115v7h7v-7h-7zM329 -118v13h13v-13h-13zM41 -86v13h13v-13h-13zM361 -86v13h13v-13h-13zM332 -51v7h7v-7h-7zM38 -57v19h19v-19h-19zM358 -57v19h19v-19h-19zM6 -25v19h19v-19h-19zM294 -25v19h19v-19
h-19zM41 9v13h13v-13h-13zM297 9v13h13v-13h-13zM358 6v19h19v-19h-19zM9 73v13h13v-13h-13zM329 73v13h13v-13h-13zM230 102v19h19v-19h-19zM41 137v13h13v-13h-13zM326 134v19h19v-19h-19zM38 166v19h19v-19h-19zM358 198v19h19v-19h-19zM9 233v13h13v-13h-13zM361 265v13
h13v-13h-13zM0 0v64h32v32h-32v128h32v32h-32v256h96v-32h32v-64h32v-64h32v-64h32v-64h32v-64h32v-64h32v-32h32v32h-32v32h32v32h-32v352h64v-224h-32v-32h32v-32h-32v-32h32v-160h-32v-32h-32v32h-64v96h-32v32h-32v64h-32v64h-32v64h-32v64h-32v-224h-32v-64h32v-96h-32
v-32h-32z" />
    <glyph glyph-name="O" unicode="O" horiz-adv-x="522" 
d="M172 -179v7h7v-7h-7zM268 -179v7h7v-7h-7zM140 -147v7h7v-7h-7zM236 -115v7h7v-7h-7zM300 -115v7h7v-7h-7zM201 -86v13h13v-13h-13zM297 -86v13h13v-13h-13zM102 -89v19h19v-19h-19zM169 -54v13h13v-13h-13zM233 -54v13h13v-13h-13zM105 -22v13h13v-13h-13zM297 -22v13
h13v-13h-13zM169 9v13h13v-13h-13zM262 6v19h19v-19h-19zM12 44v7h7v-7h-7zM105 41v13h13v-13h-13zM425 41v13h13v-13h-13zM326 38v19h19v-19h-19zM425 73v13h13v-13h-13zM294 70v19h19v-19h-19zM70 102v19h19v-19h-19zM358 102v19h19v-19h-19zM128 0v64h-64v32h32v32h32
v-32h32v-32h160v-64h-32v32h-32v-32h-64v32h-32v-32h-32zM320 64v64h32v-32h32v-32h-64zM9 137v13h13v-13h-13zM425 169v13h13v-13h-13zM9 201v13h13v-13h-13zM32 96v64h-32v32h32v32h32v-64h32v-32h-32v-32h-32zM41 233v13h13v-13h-13zM393 233v13h13v-13h-13zM393 265v13
h13v-13h-13zM384 96v32h-32v32h32v64h32v64h-32v64h-32v32h-32v32h-32v32h-128v-32h-32v-32h-32v-32h-32v-96h-32v-32h-32v160h32v32h32v32h32v32h32v32h192v-32h32v-32h32v-32h32v-32h32v-192h-32v-32h32v-32h-32v-32h-32z" />
    <glyph glyph-name="P" unicode="P" 
d="M44 -179v7h7v-7h-7zM44 -147v7h7v-7h-7zM12 -115v7h7v-7h-7zM41 -86v13h13v-13h-13zM9 -54v13h13v-13h-13zM41 -22v13h13v-13h-13zM9 9v13h13v-13h-13zM32 0v32h32v-32h-32zM41 41v13h13v-13h-13zM6 102v19h19v-19h-19zM9 137v13h13v-13h-13zM9 201v13h13v-13h-13zM0 32
v64h32v64h-32v32h32v32h32v-160h-32v-32h-32zM41 233v13h13v-13h-13zM169 233v13h13v-13h-13zM262 230v19h19v-19h-19zM256 288v32h32v32h32v32h-32v32h-32v32h-192v-160h192zM0 224v288h288v-32h32v-32h32v-32h32v-96h-32v-32h-32v-32h-64v-32h-64v32h-32v-32h-96v32h-32
v-32h-32z" />
    <glyph glyph-name="Q" unicode="Q" horiz-adv-x="522" 
d="M204 -179v7h7v-7h-7zM396 -179v7h7v-7h-7zM12 -147v7h7v-7h-7zM169 -150v13h13v-13h-13zM332 -115v7h7v-7h-7zM393 -118v13h13v-13h-13zM233 -86v13h13v-13h-13zM12 -51v7h7v-7h-7zM169 -54v13h13v-13h-13zM297 -54v13h13v-13h-13zM390 -57v19h19v-19h-19zM166 -25v19h19
v-19h-19zM201 9v13h13v-13h-13zM297 9v13h13v-13h-13zM105 41v13h13v-13h-13zM361 41v13h13v-13h-13zM9 73v13h13v-13h-13zM105 105v13h13v-13h-13zM297 137v13h13v-13h-13zM9 169v13h13v-13h-13zM425 169v13h13v-13h-13zM425 201v13h13v-13h-13zM41 233v13h13v-13h-13z
M320 64v32h-32v32h32v32h32v-32h32v224h-32v32h-32v32h-32v32h-128v-32h-32v-32h-32v-32h-32v-96h-32v-32h32v-64h32v-64h64v-32h160zM128 0v64h-64v32h-32v32h-32v32h32v32h-32v192h32v32h32v32h32v32h32v32h192v-32h32v-32h32v-32h32v-32h32v-160h-32v-64h32v-64h-32v-32
h32v-64h-64v64h-32v-64h-32v32h-32v-32h-64v32h-32v-32h-64z" />
    <glyph glyph-name="R" unicode="R" 
d="M44 -179v7h7v-7h-7zM268 -179v7h7v-7h-7zM12 -147v7h7v-7h-7zM236 -147v7h7v-7h-7zM44 -115v7h7v-7h-7zM236 -115v7h7v-7h-7zM44 -83v7h7v-7h-7zM262 -89v19h19v-19h-19zM233 -54v13h13v-13h-13zM6 -57v19h19v-19h-19zM38 -25v19h19v-19h-19zM134 6v19h19v-19h-19zM9 41
v13h13v-13h-13zM137 105v13h13v-13h-13zM198 102v19h19v-19h-19zM9 137v13h13v-13h-13zM105 201v13h13v-13h-13zM9 233v13h13v-13h-13zM265 233v13h13v-13h-13zM73 265v13h13v-13h-13zM169 265v13h13v-13h-13zM201 265v13h13v-13h-13zM224 256v32h32v32h32v32h32v32h-32v32
h-32v32h-192v-192h32v32h64v-32h64zM0 0v32h32v32h-32v64h32v32h-32v64h32v32h-32v256h288v-32h32v-32h32v-32h32v-96h-32v-32h-32v-32h-64v-32h-160v-32h64v-32h32v-64h64v-32h32v-64h-64v32h-32v32h-32v64h-64v32h-32v-160h-64z" />
    <glyph glyph-name="S" unicode="S" 
d="M169 -182v13h13v-13h-13zM108 -147v7h7v-7h-7zM172 -147v7h7v-7h-7zM233 -150v13h13v-13h-13zM108 -115v7h7v-7h-7zM204 -83v7h7v-7h-7zM262 -89v19h19v-19h-19zM201 -54v13h13v-13h-13zM134 -57v19h19v-19h-19zM108 -19v7h7v-7h-7zM105 9v13h13v-13h-13zM201 9v13h13
v-13h-13zM297 9v13h13v-13h-13zM326 38v19h19v-19h-19zM73 73v13h13v-13h-13zM41 105v13h13v-13h-13zM329 137v13h13v-13h-13zM102 230v19h19v-19h-19zM294 230v19h19v-19h-19zM256 -32v32h-32v32h-32v-32h-64v32h-32v-32h-32v32h-32v32h-32v64h32v-32h32v-32h224v32h32v32
h32v32h-64v32h-32v32h-128v32h-64v32h-32v32h-32v128h32v32h32v32h256v-32h32v-32h32v-64h-64v32h-32v32h-192v-32h-32v-64h32v-32h32v-32h160v-64h64v-32h32v-128h-64v-32h-32v-64h-32z" />
    <glyph glyph-name="T" unicode="T" 
d="M172 -179v7h7v-7h-7zM172 -147v7h7v-7h-7zM172 -115v7h7v-7h-7zM201 -86v13h13v-13h-13zM169 -54v13h13v-13h-13zM198 -25v19h19v-19h-19zM201 9v13h13v-13h-13zM169 73v13h13v-13h-13zM201 169v13h13v-13h-13zM201 201v13h13v-13h-13zM166 262v19h19v-19h-19zM160 0v64
h32v32h-32v160h32v32h-32v160h-160v64h384v-64h-160v-224h-32v-64h32v-128h-32v-32h-32z" />
    <glyph glyph-name="U" unicode="U" 
d="M204 -179v7h7v-7h-7zM140 -147v7h7v-7h-7zM236 -115v7h7v-7h-7zM169 -86v13h13v-13h-13zM137 -54v13h13v-13h-13zM230 -57v19h19v-19h-19zM166 6v19h19v-19h-19zM73 41v13h13v-13h-13zM233 41v13h13v-13h-13zM361 105v13h13v-13h-13zM6 134v19h19v-19h-19zM326 166v19h19
v-19h-19zM41 201v13h13v-13h-13zM128 0v32h-32v32h-64v32h-32v32h32v32h-32v352h64v-288h-32v-32h32v-64h32v-32h192v32h32v32h32v32h-32v320h64v-384h-32v-64h-32v-32h-64v32h-32v-32h32v-32h-64v32h-32v-32h-32z" />
    <glyph glyph-name="V" unicode="V" 
d="M204 -179v7h7v-7h-7zM204 -147v7h7v-7h-7zM172 -115v7h7v-7h-7zM201 -86v13h13v-13h-13zM166 -57v19h19v-19h-19zM198 6v19h19v-19h-19zM230 38v19h19v-19h-19zM105 73v13h13v-13h-13zM233 105v13h13v-13h-13zM105 137v13h13v-13h-13zM358 198v19h19v-19h-19zM9 233v13
h13v-13h-13zM358 230v19h19v-19h-19zM160 0v32h-32v64h-64v32h-32v32h-32v64h32v32h-32v256h64v-320h32v-64h64v-32h96v64h32v32h32v320h64v-256h-32v-64h32v-32h-32v-32h-32v-32h-32v-32h-64v-32h-32v-32h-32z" />
    <glyph glyph-name="W" unicode="W" horiz-adv-x="522" 
d="M108 -179v7h7v-7h-7zM332 -179v7h7v-7h-7zM332 -147v7h7v-7h-7zM137 -150v13h13v-13h-13zM332 -115v7h7v-7h-7zM108 -83v7h7v-7h-7zM300 -83v7h7v-7h-7zM137 -54v13h13v-13h-13zM329 -54v13h13v-13h-13zM297 -22v13h13v-13h-13zM102 -25v19h19v-19h-19zM102 6v19h19v-19
h-19zM326 6v19h19v-19h-19zM169 41v13h13v-13h-13zM38 70v19h19v-19h-19zM230 70v19h19v-19h-19zM390 70v19h19v-19h-19zM9 105v13h13v-13h-13zM233 137v13h13v-13h-13zM38 166v19h19v-19h-19zM230 166v19h19v-19h-19zM422 166v19h19v-19h-19zM128 0v32h-64v64h-32v32h-32
v384h64v-320h-32v-32h32v-32h32v-32h64v32h32v384h64v-320h-32v-64h64v-32h64v32h32v384h64v-320h-32v-32h32v-64h-64v-64h-64v-32h-32v32h-32v64h-32v-32h-64v-64h-32z" />
    <glyph glyph-name="X" unicode="X" horiz-adv-x="522" 
d="M12 -179v7h7v-7h-7zM428 -179v7h7v-7h-7zM44 -147v7h7v-7h-7zM428 -147v7h7v-7h-7zM44 -115v7h7v-7h-7zM428 -115v7h7v-7h-7zM41 -86v13h13v-13h-13zM425 -86v13h13v-13h-13zM393 -54v13h13v-13h-13zM38 -57v19h19v-19h-19zM9 -22v13h13v-13h-13zM9 9v13h13v-13h-13z
M425 9v13h13v-13h-13zM384 0v32h32v-32h-32zM390 38v19h19v-19h-19zM9 73v13h13v-13h-13zM70 70v19h19v-19h-19zM73 137v13h13v-13h-13zM294 134v19h19v-19h-19zM358 134v19h19v-19h-19zM32 0v32h-32v32h32v64h64v64h32v32h32v64h-32v32h-32v32h-32v32h-32v32h-32v96h64v-64
h32v-32h32v-32h32v-32h32v-32h64v32h32v32h32v32h32v32h32v64h64v-96h-32v-32h-32v-32h-32v-32h-32v-32h-32v-64h32v-32h32v-64h64v-32h32v-64h-32v32h-64v32h-32v64h-64v32h-64v-32h-32v-32h-32v-32h-64v-96h-32z" />
    <glyph glyph-name="Y" unicode="Y" horiz-adv-x="522" 
d="M204 -179v7h7v-7h-7zM236 -147v7h7v-7h-7zM236 -115v7h7v-7h-7zM201 -86v13h13v-13h-13zM201 -54v13h13v-13h-13zM233 -22v13h13v-13h-13zM233 9v13h13v-13h-13zM230 38v19h19v-19h-19zM201 105v13h13v-13h-13zM198 134v19h19v-19h-19zM230 198v19h19v-19h-19zM169 265
v13h13v-13h-13zM192 0v96h32v64h-32v128h-64v32h-32v32h-32v32h-32v32h-32v96h64v-64h32v-32h32v-32h32v-32h32v-32h64v32h32v32h32v32h32v32h32v64h64v-96h-32v-32h-32v-32h-32v-32h-32v-32h-32v-32h-32v-32h-32v-32h32v-128h-32v-64h-32z" />
    <glyph glyph-name="Z" unicode="Z" 
d="M236 -179v7h7v-7h-7zM105 -118v13h13v-13h-13zM233 -118v13h13v-13h-13zM297 -118v13h13v-13h-13zM233 -86v13h13v-13h-13zM169 -54v13h13v-13h-13zM102 -57v19h19v-19h-19zM41 9v13h13v-13h-13zM233 9v13h13v-13h-13zM134 6v19h19v-19h-19zM0 0v32h32v-32h-32zM297 41
v13h13v-13h-13zM6 38v19h19v-19h-19zM358 38v19h19v-19h-19zM9 105v13h13v-13h-13zM70 102v19h19v-19h-19zM64 0v32h-32v32h-32v32h32v64h32v32h32v32h32v32h32v32h32v32h32v32h32v32h32v32h32v32h-320v64h384v-128h-32v-32h-32v-32h-32v-32h-32v-32h-32v-32h-32v-32h-32
v-32h-32v-32h-64v-64h224v-32h32v32h32v-32h32v-32h-128v32h-32v-32h-64v32h-32v-32h-64z" />
    <glyph glyph-name="a" unicode="a" horiz-adv-x="362" 
d="M204 -179v7h7v-7h-7zM108 -147v7h7v-7h-7zM204 -147v7h7v-7h-7zM172 -83v7h7v-7h-7zM137 -54v13h13v-13h-13zM268 -19v7h7v-7h-7zM268 12v7h7v-7h-7zM102 6v19h19v-19h-19zM265 41v13h13v-13h-13zM9 73v13h13v-13h-13zM73 73v13h13v-13h-13zM70 102v19h19v-19h-19z
M224 64v64h-160v-64h160zM64 0v32h-32v64h-32v32h32v32h32v32h160v32h-160v64h192v-32h32v-192h-32v-64h-128v32h-32v-32h-32z" />
    <glyph glyph-name="b" unicode="b" horiz-adv-x="362" 
d="M172 -179v7h7v-7h-7zM108 -147v7h7v-7h-7zM76 -115v7h7v-7h-7zM172 -115v7h7v-7h-7zM76 -83v7h7v-7h-7zM166 -57v19h19v-19h-19zM70 -25v19h19v-19h-19zM201 9v13h13v-13h-13zM166 6v19h19v-19h-19zM38 38v19h19v-19h-19zM41 73v13h13v-13h-13zM201 73v13h13v-13h-13z
M6 134v19h19v-19h-19zM262 134v19h19v-19h-19zM64 32v32h160v128h-32v32h-128v-128h-32v-64h32zM0 0v128h32v32h-32v352h64v-224h160v-32h32v-32h32v-64h-32v-32h32v-64h-32v-32h-96v-32h-160z" />
    <glyph glyph-name="c" unicode="c" horiz-adv-x="394" 
d="M204 -179v7h7v-7h-7zM204 -115v7h7v-7h-7zM137 -118v13h13v-13h-13zM233 -86v13h13v-13h-13zM105 -54v13h13v-13h-13zM265 9v13h13v-13h-13zM134 6v19h19v-19h-19zM6 70v19h19v-19h-19zM294 70v19h19v-19h-19zM64 0v32h-32v64h-32v128h32v32h32v32h224v-32h32v-64h-64v32
h-160v-32h-32v-96h32v-32h160v32h32v-32h32v-32h-64v-32h-96v32h-32v-32h-64z" />
    <glyph glyph-name="d" unicode="d" horiz-adv-x="362" 
d="M204 -179v7h7v-7h-7zM140 -147v7h7v-7h-7zM137 -118v13h13v-13h-13zM166 -89v19h19v-19h-19zM105 -54v13h13v-13h-13zM201 9v13h13v-13h-13zM102 6v19h19v-19h-19zM265 41v13h13v-13h-13zM6 70v19h19v-19h-19zM265 105v13h13v-13h-13zM41 137v13h13v-13h-13zM230 198v19
h19v-19h-19zM224 64v128h32v32h-160v-32h-32v-32h-32v-32h32v-32h32v-32h128zM64 0v32h-32v64h-32v128h32v32h32v32h160v192h64v-352h-32v-32h32v-32h-32v-32h32v-32h-64v32h-32v-32h-64v32h-32v-32h-32z" />
    <glyph glyph-name="e" unicode="e" horiz-adv-x="362" 
d="M140 -179v7h7v-7h-7zM137 -118v13h13v-13h-13zM169 -86v13h13v-13h-13zM102 -57v19h19v-19h-19zM204 -19v7h7v-7h-7zM137 9v13h13v-13h-13zM230 38v19h19v-19h-19zM6 102v19h19v-19h-19zM102 134v19h19v-19h-19zM166 166v19h19v-19h-19zM201 201v13h13v-13h-13zM192 160
v32h32v32h-128v-32h64v-32h32zM64 0v32h-32v32h-32v32h32v32h-32v96h32v32h32v32h160v-32h32v-32h32v-96h-160v32h-32v-32h-32v-32h32v-32h128v-32h32v-32h-96v32h-32v-32h-64z" />
    <glyph glyph-name="f" unicode="f" horiz-adv-x="330" 
d="M44 -179v7h7v-7h-7zM44 -147v7h7v-7h-7zM41 -118v13h13v-13h-13zM73 -86v13h13v-13h-13zM41 -54v13h13v-13h-13zM70 38v19h19v-19h-19zM70 70v19h19v-19h-19zM38 134v19h19v-19h-19zM6 198v19h19v-19h-19zM134 230v19h19v-19h-19zM73 265v13h13v-13h-13zM32 0v128h32v32
h-32v64h-32v-32h-32v64h64v192h32v32h32v32h96v-32h32v-32h32v-128h-64v96h-32v32h-32v-32h-32v-128h-32v-32h64v-32h32v32h32v-64h-96v-96h-32v-64h32v-32h-64z" />
    <glyph glyph-name="g" unicode="g" horiz-adv-x="362" 
d="M204 -275v7h7v-7h-7zM73 -278v13h13v-13h-13zM76 -243v7h7v-7h-7zM41 -246v13h13v-13h-13zM137 -246v13h13v-13h-13zM233 -246v13h13v-13h-13zM9 -214v13h13v-13h-13zM265 -214v13h13v-13h-13zM32 -224v32h64v-32h-64zM41 -182v13h13v-13h-13zM0 -192v32h32v-32h-32z
M233 -150v13h13v-13h-13zM96 -288v64h32v-32h32v32h32v32h32v32h32v32h32v-64h-32v-32h-32v-32h-32v-32h-96zM265 -118v13h13v-13h-13zM265 -86v13h13v-13h-13zM224 64v128h-32v32h-96v-32h-32v-96h32v-32h128zM224 -128v128h-160v32h-32v32h-32v160h32v32h32v32h160v-32h32
v-32h32v-288h-32v-64h-32z" />
    <glyph glyph-name="h" unicode="h" horiz-adv-x="362" 
d="M44 -179v7h7v-7h-7zM44 -147v7h7v-7h-7zM236 -147v7h7v-7h-7zM44 -115v7h7v-7h-7zM262 -121v19h19v-19h-19zM41 -86v13h13v-13h-13zM233 -86v13h13v-13h-13zM268 -51v7h7v-7h-7zM6 -57v19h19v-19h-19zM268 -19v7h7v-7h-7zM265 9v13h13v-13h-13zM41 73v13h13v-13h-13z
M41 105v13h13v-13h-13zM230 134v19h19v-19h-19zM70 198v19h19v-19h-19zM198 230v19h19v-19h-19zM0 0v512h64v-224h32v32h128v-32h32v-32h32v-224h-32v-32h-32v128h32v32h-32v96h-96v-32h-64v-96h-32v-64h32v-64h-64z" />
    <glyph glyph-name="i" unicode="i" horiz-adv-x="138" 
d="M12 -179v7h7v-7h-7zM9 -150v13h13v-13h-13zM44 -115v7h7v-7h-7zM41 -86v13h13v-13h-13zM6 -57v19h19v-19h-19zM41 41v13h13v-13h-13zM38 70v19h19v-19h-19zM6 166v19h19v-19h-19zM0 0v160h32v32h-32v64h64v-160h-32v-64h32v-32h-64zM0 288v64h64v-64h-64z" />
    <glyph glyph-name="j" unicode="j" horiz-adv-x="138" 
d="M-179 -275v7h7v-7h-7zM-118 -278v13h13v-13h-13zM-22 -278v13h13v-13h-13zM-83 -243v7h7v-7h-7zM-243 -211v7h7v-7h-7zM-185 -217v19h19v-19h-19zM-160 -288v32h-64v64h32v-32h96v-32h-32v-32h-32zM-246 -182v13h13v-13h-13zM-214 -182v13h13v-13h-13zM41 -182v13h13v-13
h-13zM9 -86v13h13v-13h-13zM9 -54v13h13v-13h-13zM-96 -288v32h32v32h32v32h32v96h32v64h-32v288h64v-416h-32v-32h32v-32h-32v-32h-64v-32h-64zM0 288v64h64v-64h-64z" />
    <glyph glyph-name="k" unicode="k" horiz-adv-x="330" 
d="M44 -179v7h7v-7h-7zM236 -179v7h7v-7h-7zM44 -147v7h7v-7h-7zM233 -150v13h13v-13h-13zM204 -115v7h7v-7h-7zM9 -118v13h13v-13h-13zM44 -83v7h7v-7h-7zM204 -83v7h7v-7h-7zM41 -54v13h13v-13h-13zM201 -22v13h13v-13h-13zM6 -25v19h19v-19h-19zM9 41v13h13v-13h-13z
M230 38v19h19v-19h-19zM169 73v13h13v-13h-13zM192 0v32h-32v32h32v32h32v-64h32v-32h-64zM38 102v19h19v-19h-19zM134 134v19h19v-19h-19zM105 169v13h13v-13h-13zM0 0v32h32v32h-32v416h64v-256h32v32h32v32h96v-32h-32v-32h-32v-32h-64v-32h32v-32h64v-32h-32v-32h-32v32
h-32v32h-64v-32h32v-96h-64z" />
    <glyph glyph-name="l" unicode="l" horiz-adv-x="138" 
d="M12 -179v7h7v-7h-7zM44 -147v7h7v-7h-7zM44 -115v7h7v-7h-7zM41 -86v13h13v-13h-13zM12 -51v7h7v-7h-7zM9 -22v13h13v-13h-13zM6 38v19h19v-19h-19zM41 105v13h13v-13h-13zM41 137v13h13v-13h-13zM9 201v13h13v-13h-13zM0 0v32h32v32h-32v128h32v32h-32v224h64v-288h-32
v-64h32v-96h-64z" />
    <glyph glyph-name="m" unicode="m" 
d="M12 -179v7h7v-7h-7zM172 -179v7h7v-7h-7zM364 -179v7h7v-7h-7zM172 -147v7h7v-7h-7zM329 -150v13h13v-13h-13zM44 -115v7h7v-7h-7zM172 -115v7h7v-7h-7zM364 -115v7h7v-7h-7zM41 -86v13h13v-13h-13zM201 -86v13h13v-13h-13zM361 -86v13h13v-13h-13zM201 -54v13h13v-13
h-13zM329 -54v13h13v-13h-13zM6 -57v19h19v-19h-19zM166 -25v19h19v-19h-19zM38 6v19h19v-19h-19zM358 6v19h19v-19h-19zM329 73v13h13v-13h-13zM166 102v19h19v-19h-19zM0 0v288h32v-32h32v32h96v-32h64v32h96v-32h32v-32h32v-192h-32v-32h-32v64h32v32h-32v96h-32v32h-32
v-32h-32v-192h-64v96h32v32h-32v64h-32v32h-32v-32h-32v-160h-32v-32h-32z" />
    <glyph glyph-name="n" unicode="n" horiz-adv-x="362" 
d="M12 -179v7h7v-7h-7zM268 -179v7h7v-7h-7zM12 -147v7h7v-7h-7zM262 -153v19h19v-19h-19zM236 -115v7h7v-7h-7zM236 -83v7h7v-7h-7zM38 -89v19h19v-19h-19zM9 -54v13h13v-13h-13zM265 -54v13h13v-13h-13zM236 -19v7h7v-7h-7zM38 6v19h19v-19h-19zM233 73v13h13v-13h-13z
M41 105v13h13v-13h-13zM233 105v13h13v-13h-13zM0 0v288h64v-32h32v32h96v-32h32v-32h32v-32h32v-192h-64v64h32v64h-32v32h-32v32h-32v32h-32v-32h-32v-32h-32v-32h-32v-32h32v-64h-32v-32h-32z" />
    <glyph glyph-name="o" unicode="o" horiz-adv-x="362" 
d="M108 -179v7h7v-7h-7zM108 -147v7h7v-7h-7zM204 -147v7h7v-7h-7zM73 -118v13h13v-13h-13zM172 -83v7h7v-7h-7zM76 -51v7h7v-7h-7zM204 -51v7h7v-7h-7zM137 -54v13h13v-13h-13zM73 -22v13h13v-13h-13zM198 -25v19h19v-19h-19zM102 6v19h19v-19h-19zM169 41v13h13v-13h-13z
M41 105v13h13v-13h-13zM233 169v13h13v-13h-13zM192 32v64h32v64h32v32h-64v32h-96v-32h-32v-64h-32v-32h64v-32h64v-32h32zM64 0v32h-32v32h-32v160h32v32h32v32h160v-32h32v-32h32v-160h-32v-32h-32v-32h-96v32h-32v-32h-32z" />
    <glyph glyph-name="p" unicode="p" horiz-adv-x="362" 
d="M12 -275v7h7v-7h-7zM44 -275v7h7v-7h-7zM9 -246v13h13v-13h-13zM32 -256v32h32v-32h-32zM12 -211v7h7v-7h-7zM41 -214v13h13v-13h-13zM38 -153v19h19v-19h-19zM12 -83v7h7v-7h-7zM9 -54v13h13v-13h-13zM192 64v32h32v96h-32v32h-128v-160h128zM0 -192v96h32v64h-32v320
h224v-32h32v-32h32v-160h-32v-32h-32v-32h-160v-128h-32v-32h32v-32h-64z" />
    <glyph glyph-name="q" unicode="q" 
d="M329 -278v13h13v-13h-13zM300 -243v7h7v-7h-7zM352 -288v32h-32v32h64v-64h-32zM332 -211v7h7v-7h-7zM332 -179v7h7v-7h-7zM294 -121v19h19v-19h-19zM326 -57v19h19v-19h-19zM329 9v13h13v-13h-13zM256 64v32h32v96h-32v32h-160v-32h-32v-96h32v-32h160zM288 -224v96h32
v32h-32v96h-224v32h-32v32h-32v160h32v32h32v32h224v-32h32v32h32v-256h-32v-32h32v-32h-32v-32h32v-96h-32v-64h-32z" />
    <glyph glyph-name="r" unicode="r" horiz-adv-x="330" 
d="M44 -179v7h7v-7h-7zM9 -150v13h13v-13h-13zM44 -83v7h7v-7h-7zM44 -51v7h7v-7h-7zM9 -22v13h13v-13h-13zM41 41v13h13v-13h-13zM0 0v64h32v-32h32v-32h-64zM9 73v13h13v-13h-13zM9 105v13h13v-13h-13zM32 64v64h-32v160h64v-32h32v32h96v-32h32v-32h32v-64h-64v32h-32v32
h-32v-32h-32v-32h-32v-96h-32z" />
    <glyph glyph-name="s" unicode="s" horiz-adv-x="394" 
d="M172 -179v7h7v-7h-7zM137 -118v13h13v-13h-13zM172 -83v7h7v-7h-7zM102 -57v19h19v-19h-19zM198 -25v19h19v-19h-19zM204 44v7h7v-7h-7zM105 41v13h13v-13h-13zM137 41v13h13v-13h-13zM38 38v19h19v-19h-19zM233 73v13h13v-13h-13zM297 105v13h13v-13h-13zM64 0v64h-32
v32h64v-64h64v32h32v-32h32v32h32v32h-32v32h-128v32h-64v96h64v32h160v-32h32v-32h-192v-32h160v-32h32v-64h32v-32h-32v-32h-32v-32h-192z" />
    <glyph glyph-name="t" unicode="t" horiz-adv-x="266" 
d="M108 -179v7h7v-7h-7zM108 -147v7h7v-7h-7zM108 -115v7h7v-7h-7zM76 -83v7h7v-7h-7zM105 -54v13h13v-13h-13zM73 -22v13h13v-13h-13zM102 6v19h19v-19h-19zM73 73v13h13v-13h-13zM105 169v13h13v-13h-13zM102 198v19h19v-19h-19zM64 0v64h32v32h-32v224h-64v64h64v96h64
v-96h64v-64h-64v-96h-32v-64h32v-128h-32v-32h-32z" />
    <glyph glyph-name="u" unicode="u" horiz-adv-x="362" 
d="M140 -179v7h7v-7h-7zM140 -147v7h7v-7h-7zM169 -118v13h13v-13h-13zM105 -86v13h13v-13h-13zM169 -54v13h13v-13h-13zM76 -19v7h7v-7h-7zM73 9v13h13v-13h-13zM169 41v13h13v-13h-13zM70 70v19h19v-19h-19zM233 105v13h13v-13h-13zM96 0v32h-64v32h-32v224h64v-224h96
v-32h32v64h64v32h-32v160h64v-224h-32v-32h-32v-32h-128z" />
    <glyph glyph-name="v" unicode="v" horiz-adv-x="362" 
d="M172 -179v7h7v-7h-7zM140 -147v7h7v-7h-7zM137 -118v13h13v-13h-13zM105 -54v13h13v-13h-13zM166 -57v19h19v-19h-19zM134 38v19h19v-19h-19zM201 73v13h13v-13h-13zM73 105v13h13v-13h-13zM96 0v32h-32v32h-32v32h-32v192h64v-192h64v-64h32v64h32v-32h32v-32h-32v-32
h-96zM224 64v32h-32v32h32v160h64v-192h-32v-32h-32z" />
    <glyph glyph-name="w" unicode="w" 
d="M140 -179v7h7v-7h-7zM204 -179v7h7v-7h-7zM140 -147v7h7v-7h-7zM268 -147v7h7v-7h-7zM73 -150v13h13v-13h-13zM108 -115v7h7v-7h-7zM268 -115v7h7v-7h-7zM73 -54v13h13v-13h-13zM233 -54v13h13v-13h-13zM41 -22v13h13v-13h-13zM294 -25v19h19v-19h-19zM41 73v13h13v-13
h-13zM201 73v13h13v-13h-13zM265 73v13h13v-13h-13zM137 105v13h13v-13h-13zM361 105v13h13v-13h-13zM96 0v32h-32v64h-64v192h64v-160h32v-32h64v192h64v-160h32v-64h32v64h32v160h64v-160h-32v-64h-32v-32h-32v-32h-32v32h-32v64h-32v-32h-32v-32h-32v-32h-32z" />
    <glyph glyph-name="x" unicode="x" horiz-adv-x="362" 
d="M44 -179v7h7v-7h-7zM236 -147v7h7v-7h-7zM44 -115v7h7v-7h-7zM236 -115v7h7v-7h-7zM44 -83v7h7v-7h-7zM204 -51v7h7v-7h-7zM9 -54v13h13v-13h-13zM262 -25v19h19v-19h-19zM41 9v13h13v-13h-13zM265 41v13h13v-13h-13zM198 38v19h19v-19h-19zM105 73v13h13v-13h-13zM0 0
v64h32v32h32v32h32v32h-32v32h-32v32h-32v64h64v-32h32v-32h32v-32h32v32h32v32h32v32h64v-64h-32v-32h-32v-32h-32v-32h32v-32h32v-64h32v-32h-64v64h-64v32h-64v-64h-64v-32h-32z" />
    <glyph glyph-name="y" unicode="y" horiz-adv-x="426" 
d="M128 -256v32h-32v32h-32v64h64v-32h32v-32h96v32h32v160h-160v32h-32v32h-32v224h64v-192h32v-32h96v32h32v192h64v-480h-32v-32h-32v-32h-160z" />
    <glyph glyph-name="z" unicode="z" horiz-adv-x="362" 
d="M236 -179v7h7v-7h-7zM137 -182v13h13v-13h-13zM12 -115v7h7v-7h-7zM108 -115v7h7v-7h-7zM172 -115v7h7v-7h-7zM204 -83v7h7v-7h-7zM73 -86v13h13v-13h-13zM108 -51v7h7v-7h-7zM41 -54v13h13v-13h-13zM108 -19v7h7v-7h-7zM166 -25v19h19v-19h-19zM230 -25v19h19v-19h-19z
M41 9v13h13v-13h-13zM105 41v13h13v-13h-13zM233 41v13h13v-13h-13zM41 73v13h13v-13h-13zM0 0v64h64v64h32v32h32v32h32v32h-160v64h288v-64h-32v-32h-32v-32h-32v-32h-32v-32h-32v-32h-32v-32h32v32h96v-32h32v32h32v-64h-224v32h-32v-32h-32z" />
    <glyph glyph-name="quoteleft" unicode="&#x2018;" horiz-adv-x="138" 
d="M0 384v96h32v-32h32v-64h-64zM32 480v32h32v-32h-32z" />
    <glyph glyph-name="quoteright" unicode="&#x2019;" horiz-adv-x="138" 
d="M0 384v32h32v-32h-32zM32 416v32h-32v64h64v-96h-32z" />
    <glyph glyph-name="quotedblleft" unicode="&#x201c;" horiz-adv-x="234" 
d="M0 384v96h32v-32h32v-64h-64zM96 384v96h32v-32h32v-64h-64zM32 480v32h32v-32h-32zM128 480v32h32v-32h-32z" />
    <glyph glyph-name="quotedblright" unicode="&#x201d;" horiz-adv-x="266" 
d="M0 384v32h32v-32h-32zM128 384v32h32v-32h-32zM32 416v32h-32v64h64v-96h-32zM160 416v32h-32v64h64v-96h-32z" />
  </font>
</defs>
</svg>
